<svg width="2711" height="1623" viewBox="0 0 2711 1623" fill="none" xmlns="http://www.w3.org/2000/svg">
<g clip-path="url(#clip0)">
<path d="M167.84 1619.15C167.84 1619.15 -147.57 1280.5 114.5 913.87C347.02 588.57 618.12 610.8 817.02 742.81C901.73 799.03 1145.98 749.74 1353.86 418.73C1637.35 -32.6699 2620.04 241.1 2440.86 935.6C2354.15 1271.69 2704.75 1283.9 2526.11 1619.86L167.84 1619.15Z" fill="#EBF3FA"/>
<path d="M1456.25 581.13C1456.16 582.89 1456.1 583.82 1456.1 583.82C1456.1 583.82 1455.81 582.92 1455.25 581.21C1450.65 567.03 1428.19 497.06 1407.74 419.14C1379.46 311.34 1355.05 188.36 1387.17 176.99C1448.01 155.44 1459.22 327.67 1459.39 454.77C1459.5 517.38 1456.9 569.02 1456.25 581.13Z" fill="#A8D29F"/>
<path d="M1515.78 441.17C1493.8 489.94 1474.72 530.97 1463.78 555.54C1459.01 566.26 1455.8 573.83 1454.55 577.56C1455.61 571.49 1458.48 555.2 1462.58 532.02C1462.58 532 1462.58 532 1462.58 531.99C1468.73 497.26 1477.65 447.09 1487.44 392.62C1511.21 260.21 1540.14 102.46 1546.9 79.9C1558.82 40.12 1613.73 -44.58 1650.69 29.11C1674.7 77.01 1582.04 294.17 1515.78 441.17Z" fill="#A8D29F"/>
<path d="M1520.21 510.75C1497.49 534.73 1478.39 554.18 1467.72 564.92C1461.89 570.81 1458.58 574.09 1458.58 574.09C1458.58 574.09 1464.39 561.69 1474.31 541.88C1483.68 523.16 1496.68 497.85 1511.89 470.14C1561.72 379.34 1635.08 262.96 1680.57 269.69C1732.49 277.36 1602.57 423.82 1520.21 510.75Z" fill="#A8D29F"/>
<path d="M1456.25 581.13C1455.93 581.15 1455.6 581.18 1455.25 581.21C1450.65 567.03 1428.19 497.06 1407.74 419.14C1417.27 433.42 1434.52 452.58 1459.39 454.77C1459.5 517.38 1456.9 569.02 1456.25 581.13Z" fill="#82B378"/>
<path d="M1515.78 441.17C1493.8 489.94 1474.72 530.97 1463.78 555.54C1462.95 548.68 1462.58 540.72 1462.58 532.03C1462.58 532.01 1462.58 532.01 1462.58 532C1468.73 497.27 1477.65 447.1 1487.44 392.63C1491.27 411.64 1499.23 432.71 1515.78 441.17Z" fill="#82B378"/>
<path d="M1520.21 510.75C1497.49 534.73 1478.39 554.18 1467.72 564.92C1468.75 558.74 1471.15 550.73 1474.31 541.88C1483.68 523.16 1496.68 497.85 1511.89 470.14C1512.24 481.76 1513.9 499.06 1520.21 510.75Z" fill="#82B378"/>
<path d="M1454.53 577.6C1454.23 579.3 1454.07 580.2 1454.07 580.2C1453.85 580.07 1454 579.19 1454.53 577.6Z" fill="#A8D29F"/>
<path d="M1485.04 752.67C1446.93 860.65 1399.46 978.4 1399.46 978.4L1292.24 946.27C1292.24 946.27 1304.79 866.29 1323.22 777.3C1344.71 673.54 1356.98 568.84 1401.07 541.6C1413.2 534.1 1426.31 530.63 1439.12 529.68C1445.59 529.19 1452.02 529.41 1458.31 530.24C1459.81 530.44 1461.28 530.67 1462.77 530.92C1466.49 531.59 1470.15 532.45 1473.71 533.52C1475.11 533.91 1476.49 534.35 1477.85 534.84C1482.6 536.45 1487.19 538.39 1491.56 540.61C1510.12 550.05 1525.08 564.25 1530.93 579.6C1548.55 625.75 1513.85 671.08 1485.04 752.67Z" fill="#ED7D2B"/>
<path d="M1432.65 884.96C1404.48 970.41 1396.11 1064.18 1407.68 1164.23C1409.61 1180.92 1418.91 1195.41 1432.34 1204.3C1438.36 1208.28 1445.19 1211.13 1452.58 1212.58C1469.13 1212.49 1501.78 1182.41 1520.45 1144.02C1525.58 1133.46 1529.66 1122.28 1532.06 1110.91C1550.78 1022.11 1585.44 915.18 1628.44 860.53C1672.41 804.64 1731.64 737.84 1813.08 691.89C1813.08 691.89 1813.09 691.88 1813.11 691.87C1820.97 687.37 2005.75 552.81 2005.75 552.81C2024.14 533.37 2002.36 511.6 2002.36 511.6C2002.36 511.6 1984.81 526.99 1931.27 557.82C1877.74 588.64 1783.73 552.52 1783.69 552.51C1757.35 540.6 1726.09 541.81 1700.21 557.52C1660.27 581.76 1607.09 620 1556.65 675.04C1499.89 736.97 1458.17 807.6 1432.65 884.96Z" fill="#FFB93E"/>
<path d="M1532.05 1110.9C1550.77 1022.1 1585.43 915.17 1628.43 860.52C1672.4 804.63 1731.63 737.83 1813.07 691.88C1813.07 691.88 1813.08 691.87 1813.1 691.86C1814.52 690.83 1869.61 650.2 1808.55 613.41C1748.79 577.41 1504.87 845.62 1520.45 1144C1525.58 1133.45 1529.66 1122.27 1532.05 1110.9Z" fill="#FFA412"/>
<path d="M1308.39 763.6C1300.67 775.73 1291.2 787.46 1280.02 798.47C1237.67 840.19 1171.19 871.13 1085.61 870.32C1085.61 870.32 1049.68 836.07 1032.26 792.49L1032.28 792.47C1020.2 762.24 1011.38 717.73 1032.26 684.69C1045.72 663.4 1063.03 653.33 1080.58 648.02C1110.39 638.95 1140.87 643.63 1154.19 630.35C1167.32 617.26 1186.02 605.96 1206.54 599.45C1209.89 598.38 1213.29 597.43 1216.74 596.66H1216.76C1218.19 596.32 1219.6 596.01 1221.05 595.73C1221.08 595.71 1221.11 595.71 1221.14 595.71C1252.78 589.53 1286.58 595.59 1310.09 623.8C1315.54 630.34 1320.49 638.24 1324.7 647.74C1339.75 681.59 1333.28 724.52 1308.39 763.6Z" fill="#A8D29F"/>
<path d="M1059.48 679.8C1059.48 679.8 1031.24 701.97 1039.89 726.5C1048.54 751.03 1070.86 739.7 1077.85 722.71C1084.83 705.72 1078.05 671.56 1059.48 679.8Z" fill="#D1F2C9"/>
<path d="M1310.08 623.8C1315.53 630.34 1320.48 638.25 1324.7 647.75C1339.76 681.59 1360.43 771.37 1335.55 810.46L1302.17 840.99C1259.82 882.71 1171.2 871.13 1085.62 870.32C1085.62 870.32 1049.7 836.07 1032.27 792.5L1032.28 792.49C1032.28 792.49 1138.14 834.37 1237.85 746.93C1283.13 707.2 1302.46 661.68 1310.08 623.8Z" fill="#95C38B"/>
<path d="M1148.62 579.15C1131.15 568.74 1113.46 583.36 1092.94 591.39C1072.41 599.43 1032.91 599.26 1032.91 599.26C1032.91 599.26 1049.16 575.87 1075.79 552.64C1102.41 529.41 1148.62 579.15 1148.62 579.15Z" fill="#A8D29F"/>
<path d="M1148.62 579.15C1132.2 565.67 1101.83 557.94 1087.01 564C1072.19 570.06 1032.91 599.26 1032.91 599.26C1032.91 599.26 1049.16 575.87 1075.79 552.64C1102.41 529.41 1148.62 579.15 1148.62 579.15Z" fill="#82B378"/>
<path d="M1154.19 630.36C1167.32 617.27 1186.02 605.97 1206.54 599.46C1171.64 612.55 1152.39 656.78 1139.14 651.66C1124.93 646.15 1082.21 647.95 1080.58 648.03C1110.39 638.96 1140.87 643.63 1154.19 630.36Z" fill="#95C38B"/>
<path d="M1221.04 595.74C1219.94 596.05 1218.52 596.36 1216.75 596.67C1218.19 596.33 1219.6 596.02 1221.04 595.74Z" fill="#95C38B"/>
<path d="M1141.61 650.77C1130.42 626.04 1136.47 595.36 1143.51 573.98C1149.12 556.96 1159.87 533.99 1165.16 523.08C1166.28 520.77 1169.63 521.01 1170.43 523.44L1172.56 529.88C1174.69 536.34 1173.91 543.4 1170.39 549.22C1159.57 567.1 1137.84 608.91 1147.63 643.32C1148.73 647.19 1143.6 655.2 1141.61 650.77Z" fill="#82B378"/>
<path d="M1372.01 762.25L1368.52 760.85C1383.94 737.91 1407.85 722.18 1426.69 714.9C1443.18 708.53 1456.37 706.44 1461.09 705.83C1462.24 705.68 1463.37 706.12 1464.13 707L1467.05 710.4C1468.49 712.08 1467.49 714.77 1465.29 715.09C1448.44 717.5 1395.29 727.6 1372.01 762.25Z" fill="#22593A"/>
<path d="M1306.43 768.8C1324.11 724.64 1348.99 734.6 1379.68 746.89C1410.37 759.18 1435.25 769.14 1417.57 813.3C1404.9 844.95 1369.75 860.65 1339.06 848.36C1308.37 836.07 1293.76 800.45 1306.43 768.8Z" fill="#699DEE"/>
<path d="M1325.05 759.67C1326.16 751.75 1338.9 743.42 1346.81 744.53C1354.73 745.64 1358.41 754.48 1357.3 762.4C1356.19 770.31 1345.29 777.12 1337.37 776.01C1329.46 774.9 1323.94 767.59 1325.05 759.67Z" fill="#92BEFF"/>
<path d="M1732.51 779.92L1827.3 1455.17C1839.06 1538.92 1774.03 1613.71 1689.46 1613.71H1546.64C1474.52 1613.71 1418.38 1551.09 1426.22 1479.4L1506.44 851.27L1732.51 779.92Z" fill="#FCECDB"/>
<path d="M1234.69 779.92C1234.69 779.92 1464.45 858.26 1732.51 779.92L1653.53 1615.85H1153.31L1234.69 779.92Z" fill="#FCECDB"/>
<path d="M1234.69 779.92L1329.48 1456.9C1341.24 1540.86 1276.21 1615.85 1191.64 1615.85H1048.82C976.7 1615.85 920.56 1553.07 928.4 1481.19L996.3 779.92C996.3 779.92 1029.75 786.45 1111.13 786.45C1191.72 786.45 1234.69 779.92 1234.69 779.92Z" fill="#EFCBAB"/>
<path d="M1659.83 855.2C1659.83 845.37 1651.86 837.4 1642.03 837.4C1632.2 837.4 1624.23 845.37 1624.23 855.2C1624.23 861.77 1627.8 867.5 1633.1 870.58C1640.65 930.48 1628.74 979.44 1599.04 1009.44C1572.04 1036.71 1531.08 1046.81 1480.59 1038.67C1436.2 1031.51 1406.99 982.39 1390.3 942.44C1378.3 913.71 1370.88 885.42 1367.07 868.63C1370.83 865.37 1373.21 860.57 1373.21 855.2C1373.21 845.37 1365.24 837.4 1355.41 837.4C1345.58 837.4 1337.61 845.37 1337.61 855.2C1337.61 861.83 1341.24 867.6 1346.61 870.66C1356.18 914.57 1391.61 1044.92 1477.34 1058.75C1489.82 1060.76 1501.8 1061.76 1513.26 1061.76C1554.37 1061.76 1588.6 1048.88 1613.48 1023.75C1647.54 989.36 1661.48 934.77 1653.37 868.89C1657.33 865.63 1659.83 860.71 1659.83 855.2Z" fill="#ED7D2B"/>
<path d="M1962.32 1034.76C1974.36 1038.76 1987.38 1041.51 2001.16 1042.81C2053.39 1047.74 2116.12 1031.85 2174.22 983.6C2174.22 983.6 2179.71 940.14 2167.34 900.62H2167.32C2158.73 873.21 2139.96 837.84 2107.25 826.87C2086.18 819.81 2068.71 822.57 2053.75 828.71C2028.3 839.12 2010.06 859.31 1993.54 857.65C1977.26 856.02 1958.17 858.7 1940.5 865.69C1937.61 866.83 1934.75 868.07 1931.96 869.46L1931.95 869.47C1930.78 870.03 1929.64 870.61 1928.5 871.22C1928.47 871.23 1928.45 871.24 1928.43 871.26C1903.34 884.67 1883.59 907.65 1883.23 940.05C1883.15 947.56 1884.16 955.73 1886.58 964.57C1895.15 996.14 1923.51 1021.9 1962.32 1034.76Z" fill="#ED7D2B"/>
<path d="M2085.9 838.69C2085.9 838.69 2117.58 838.12 2125.33 859.72C2133.08 881.32 2111.5 886.01 2097.25 878.28C2083.01 870.55 2068.61 843.4 2085.9 838.69Z" fill="#FFB583"/>
<path d="M1883.24 940.06C1883.16 947.57 1884.18 955.75 1886.59 964.59C1895.15 996.14 1931.05 1069.08 1969.86 1081.96C1969.86 1081.96 2046.84 1117.32 2090.85 1100.87C2139.99 1082.5 2170.24 1043.67 2174.22 983.6C2174.22 983.6 2179.71 940.15 2167.34 900.62H2167.33C2167.33 900.62 2118.25 988.28 2001.29 984.04C1948.17 982.1 1909.57 961.73 1883.24 940.06Z" fill="#EA6C2D"/>
<path d="M1968.82 819.51C1974.97 802.65 1995.22 802.8 2013.73 796.85C2032.26 790.9 2059.19 768.77 2059.19 768.77C2059.19 768.77 2035.04 761.83 2003.87 760.77C1972.7 759.72 1968.82 819.51 1968.82 819.51Z" fill="#A8D29F"/>
<path d="M1968.82 819.51C1972.54 801.13 1989.01 778.91 2002.53 774.8C2016.05 770.69 2059.19 768.77 2059.19 768.77C2059.19 768.77 2035.04 761.83 2003.87 760.77C1972.7 759.72 1968.82 819.51 1968.82 819.51Z" fill="#82B378"/>
<path d="M1993.55 857.65C1977.27 856.02 1958.18 858.7 1940.51 865.69C1971.68 855.19 2009.51 874.72 2015.72 863.83C2022.37 852.14 2052.6 829.56 2053.76 828.7C2028.31 839.12 2010.06 859.31 1993.55 857.65Z" fill="#EA6C2D"/>
<path d="M1928.51 871.23C1929.44 870.83 1930.58 870.25 1931.96 869.48C1930.8 870.04 1929.66 870.62 1928.51 871.23Z" fill="#95C38B"/>
<path d="M2013.53 864.61C2007.4 841.45 1986.16 823.83 1969.43 813.13C1956.11 804.62 1935.95 794.89 1926.25 790.37C1924.2 789.41 1922.04 791.44 1922.84 793.55L1924.98 799.15C1927.12 804.76 1931.59 809.15 1937.24 811.17C1954.61 817.38 1992.78 833.86 2005.26 862.86C2006.67 866.13 2014.65 868.75 2013.53 864.61Z" fill="#82B378"/>
<path d="M1881.02 1555.16C1881.02 1555.16 1857.74 1572.61 1822.06 1563.39C1822.06 1563.39 1793.29 1556.84 1786.98 1571.18C1786.98 1571.18 1831.1 1593.59 1842.26 1599.72C1850.67 1604.34 1859.46 1611.63 1865.66 1617.27C1870.57 1621.73 1878.23 1621.13 1882.41 1615.98C1884.35 1613.59 1886.57 1610.75 1889.01 1607.45C1895.81 1598.23 1911.66 1568.45 1911.66 1568.45L1881.02 1555.16Z" fill="#0F8143"/>
<path d="M1867.35 1546.3C1867.35 1546.3 1881.53 1578.99 1914.26 1572.98C1914.26 1572.98 1981.04 1517.83 2026.85 1460.53C2041.73 1441.92 2054.39 1423.09 2061.84 1405.85C2092.22 1335.52 2174.21 1230.62 2226.34 1177.45L2095.92 1130.27C2095.92 1130.27 2054.14 1214.31 1998.56 1317.53C1958.49 1391.91 1911.27 1476.25 1867.35 1546.3Z" fill="#22593A"/>
<path d="M1998.55 1317.54L2026.85 1460.54C2041.73 1441.93 2054.39 1423.1 2061.84 1405.86C2092.22 1335.53 2174.21 1230.63 2226.34 1177.46L2095.92 1130.28C2095.91 1130.28 2054.13 1214.31 1998.55 1317.54Z" fill="#0F8143"/>
<path d="M2105.16 1574.13C2105.16 1574.13 2106.58 1600.22 2074.96 1603.7C2074.96 1603.7 2056.89 1603.8 2056.84 1620.4L2148.75 1620.69C2148.75 1620.69 2151.42 1613.99 2152.07 1599.65C2152.57 1588.63 2141.39 1559.84 2141.39 1559.84L2105.16 1574.13Z" fill="#0F8143"/>
<path d="M2138.69 1130.28C2138.69 1130.28 2080.59 1194.12 2043.7 1309.15C2023.63 1371.73 2080.48 1529.08 2091.56 1583.74C2091.56 1583.74 2129.7 1586.98 2155.77 1576.9C2155.77 1576.9 2157.75 1463.99 2142.5 1376.96C2133.97 1328.25 2219 1272.79 2256.16 1184.79C2281.44 1124.92 2250.69 1125.94 2212.89 1124.5L2138.69 1130.28Z" fill="#22593A"/>
<path d="M2205.76 845.44C2238.09 863.69 2304.27 846.86 2304.27 846.86C2304.27 846.86 2277.39 816.13 2289.61 766.65L2264.23 779.54L2236.97 793.39C2236.97 793.39 2235.21 802.13 2233.98 817.83C2233.67 821.87 2233.39 826.39 2233.19 831.32C2216.59 836.34 2205.76 845.44 2205.76 845.44Z" fill="#FFB07B"/>
<path d="M2087.22 1126.98C2087.22 1132.66 2093.77 1135.38 2095.16 1135.66C2108.2 1138.04 2144.6 1152.2 2177.4 1155.45C2205.02 1158.34 2230.65 1155.6 2258.82 1149.94C2262.55 1149.19 2271.31 1146.83 2271.93 1143.26C2272.71 1139.36 2380.58 923.36 2296.72 830.57C2294.75 828.39 2278.2 832.31 2263.06 835.91C2249.08 839.23 2236.26 837.38 2224.81 832.78L2210.61 840.25C2193.18 849.96 2160.19 884.48 2156.33 911.56C2154.37 925.33 2146.5 935.53 2144.22 947.65C2143.37 952.13 2142.51 956.51 2141.63 960.77C2139.91 969.14 2138.14 977.1 2136.32 984.67C2131.39 1005.15 2126.18 1022.79 2121.07 1038.02C2115.63 1054.19 2110.29 1067.65 2105.53 1078.9C2099.35 1093.49 2094.12 1104.4 2090.86 1112.75C2088.54 1118.63 2087.22 1123.24 2087.22 1126.98Z" fill="#4BD37B"/>
<path d="M2090.85 1112.75C2243.12 1041.01 2295.86 903.25 2295.86 903.25C2295.86 903.25 2172.15 948.89 2141.63 960.77C2139.91 969.14 2138.14 977.1 2136.32 984.67C2131.39 1005.15 2126.18 1022.79 2121.07 1038.02C2115.63 1054.19 2110.29 1067.65 2105.53 1078.9C2099.34 1093.49 2094.11 1104.4 2090.85 1112.75Z" fill="#4BD37B"/>
<path d="M1987.58 1074.84C1987.58 1074.84 1966.41 1066.16 1961.55 1066.86C1956.69 1067.55 1943.23 1064.19 1944 1068.6C1944.53 1071.64 1961.9 1074.85 1961.9 1074.85C1961.9 1074.85 1942.5 1070.49 1944 1075.02C1945.03 1078.14 1949.15 1090.57 1955.57 1094.63C1963.25 1099.49 1977.14 1097.14 1993.43 1094.79C2023.32 1090.45 1987.58 1074.84 1987.58 1074.84Z" fill="#FFB07B"/>
<path d="M1990.93 1089.78C1986.06 1077.09 1983.84 1071.34 1983.84 1071.34C1983.84 1071.34 2083.27 990.3 2093.4 983.35C2100.3 978.61 2169.03 927.24 2202.54 887.2C2219.16 867.34 2245.37 858.26 2270.71 863.58L2291.58 867.96C2316.78 873.24 2324.97 905.14 2305.42 921.9C2250.36 969.1 2157.49 1023.85 2140.18 1035.24C2097.2 1063.51 2002.12 1103.12 2002.12 1103.12C2002.12 1103.12 1994.75 1099.75 1990.93 1089.78Z" fill="#4BD37B"/>
<path d="M2233.97 817.82C2265.76 819.6 2286.43 793.36 2286.43 793.36C2286.43 793.36 2272.06 785.4 2264.22 779.54L2236.96 793.39C2236.96 793.38 2235.2 802.12 2233.97 817.82Z" fill="#EA8E50"/>
<path d="M2220.43 785.18C2220.43 785.18 2268.6 819.75 2289.66 789.42C2310.72 759.09 2331.13 743.13 2301.27 719.78C2271.41 696.43 2257.33 703.81 2247.84 712.22C2238.34 720.63 2208.44 775.41 2220.43 785.18Z" fill="#FFB07B"/>
<path d="M2242.74 684.82C2244.47 673.16 2248.35 664.96 2248.35 664.96C2248.35 664.96 2251.37 677.48 2274.26 675.75C2297.14 674.02 2333.41 678 2345.5 704.08C2346.27 705.74 2346.96 707.45 2347.56 709.2C2349.75 703.42 2350.28 694.76 2350.28 694.76C2354.63 705.99 2350.28 720.03 2350.28 720.03C2350.35 720.44 2350.4 720.85 2350.46 721.26C2355.51 725.53 2359.75 738.8 2359.75 738.8C2358.23 735.1 2354.51 732.68 2351.2 731.19C2351.3 751.48 2343.07 771.32 2328.63 777.22C2307.51 785.85 2307.68 779.27 2286.44 793.36C2286.44 793.36 2280.74 786.29 2284.63 781.54C2288.52 776.79 2303.2 769.88 2294.99 762.97C2286.78 756.06 2283.76 763.83 2280.74 759.08C2277.72 754.33 2292.83 740.51 2273.4 727.56C2253.97 714.62 2241.01 696.48 2242.74 684.82Z" fill="#0F8143"/>
<path d="M821.879 114.33C821.799 112.04 820.029 87.42 782.509 86.13C782.509 86.13 800.959 88.33 804.139 96.44C804.139 96.44 791.579 86.42 781.349 89.64C771.119 92.86 765.109 110.78 765.049 116.68C764.989 122.57 770.669 141.58 777.159 143.19C779.619 143.8 782.449 143.64 785.019 143.2C783.289 145.9 781.599 148.87 779.979 152.19C765.009 182.92 780.449 212.95 793.119 209.63C801.249 207.5 803.549 221.37 803.549 221.37L882.509 157.45C882.519 157.45 853.519 97.44 821.879 114.33Z" fill="#494A4A"/>
<path d="M849.37 1019.55L832.6 1025.79C832.6 1025.79 759.75 924.76 750.78 835.86C749.18 819.99 749.71 804.61 753.18 790.41C753.18 790.41 752.47 786.34 751.22 779.15C750.64 775.8 749.93 771.76 749.12 767.13C746.75 753.56 743.49 734.99 739.77 713.85C731.2 665.2 720.09 603.01 711.47 557.29L715.99 555.84L764.89 540.07L774.99 507.97L811.4 498.39C811.4 498.39 819.53 514.3 826.8 589.46C828.14 599.32 829.36 610.19 830.28 621.98C833.11 657.96 833.32 702.6 826.82 753.63C825.15 766.69 823.04 780.18 820.43 794.04C818.51 804.2 818.23 818.04 819.03 833.94C822.69 906.62 849.37 1019.55 849.37 1019.55Z" fill="#22593A"/>
<path d="M830.28 621.99L751.22 779.17C750.64 775.82 749.93 771.78 749.12 767.15C746.75 753.58 743.49 735.01 739.77 713.87C731.2 665.22 720.09 603.03 711.47 557.31L715.99 555.86L764.89 540.09L774.99 507.99L811.4 498.41C811.4 498.41 819.53 514.32 826.8 589.48C828.14 599.33 829.36 610.2 830.28 621.99Z" fill="#0F8143"/>
<path d="M795.5 518.57L793.67 502.87C763.01 511.01 681.08 480.11 681.08 480.11C681.08 480.11 651.38 506.22 655.28 568.81C657.18 599.36 660.66 729.18 664.29 767.59C665.6 781.51 666.75 791.42 667.22 795.38C667.23 795.4 667.23 795.41 667.23 795.42C667.37 796.63 666.95 797.77 666.34 798.82C660.99 807.89 656.57 817.34 652.93 827.01C617.28 922 658.42 1038.98 658.42 1038.98L669.09 1034.68C669.09 1034.68 692.5 904.5 711.52 846.99C714.75 837.24 717.84 829.57 720.68 824.99C728.95 811.64 736.62 789.83 743.59 763.89C756.76 714.85 767.35 651.05 774.41 601.81C775.39 601.86 795.5 518.57 795.5 518.57Z" fill="#22593A"/>
<path d="M1037.07 498.52C1030.47 504.36 1012.95 484.31 1010.54 481.64C1010.41 481.39 1010.29 481.26 1010.29 481.26L1015.62 466.41C1015.62 466.41 1038.59 465.52 1042.4 469.33C1046.21 473.14 1044.3 492.3 1037.07 498.52Z" fill="#FFB27D"/>
<path d="M1015.62 466.41L1013.33 481.77C1013.33 481.77 1012.32 481.77 1010.54 481.64C1004.96 481.26 991.37 480.5 976.02 478.85C952.92 476.57 925.5 472.5 914.59 465.78C897.96 455.63 870.67 424.53 852.91 393.43C852.4 392.67 852.02 391.91 851.64 391.15C842.37 374.65 835.9 358.28 835.39 345.2C835.01 337.2 835.9 330.35 837.55 324.39C839.71 316.52 843.26 310.3 846.94 305.61C847.45 304.85 847.96 304.09 848.72 303.45C854.81 296.22 860.78 293.17 860.78 293.17C863.83 291.9 867.13 293.42 870.55 297.1V297.23C873.34 300.15 876.39 304.59 879.31 310.18C879.44 310.31 879.56 310.43 879.56 310.56C880.19 311.7 880.83 312.97 881.59 314.37C881.84 314.62 881.97 315.01 882.1 315.26C883.5 318.18 884.89 321.22 886.29 324.4C901.9 358.41 918.53 409.94 932.36 425.3C938.32 431.9 965.61 444.85 987.32 454.49C1002.93 461.34 1015.62 466.41 1015.62 466.41Z" fill="#FFB27D"/>
<path d="M854.079 328.2C844.449 332.66 832.829 335.7 818.769 336.47C766.049 339.36 754.089 293.15 751.909 262.48C759.509 259.73 766.159 259.99 769.999 260.19C773.739 260.4 777.639 260.78 780.859 261.18C787.309 257.81 798.889 241.45 805.589 214.08L807.859 215.13L845.899 233.01C845.899 233.01 841.859 245.39 838.879 257.23C836.549 266.5 834.879 275.46 836.279 277.96C839.279 279.18 841.069 279.95 841.069 279.95C841.069 279.95 841.069 279.96 841.079 279.99C841.449 280.96 849.719 302.04 854.079 328.2Z" fill="#FFB27D"/>
<path d="M867.259 362.79C866.859 363.84 866.419 364.87 865.949 365.93C852.599 394.68 827.879 513.8 827.879 513.8C831.399 535.21 666.939 509.6 666.509 490.1C660.719 469.42 687.059 436.21 701.919 419.54C703.779 417.45 705.449 415.2 706.899 412.83C710.569 406.89 712.899 400.18 713.639 393.17C716.559 365.53 715.449 339.63 715.689 323.87C718.589 321.72 721.399 319.73 724.019 317.85C728.019 314.93 731.549 312.21 734.149 309.44C737.009 306.43 738.809 303.35 739.009 299.87C739.159 297.24 739.079 294.54 738.799 291.85C738.679 290.58 738.509 289.3 738.319 288.03C736.269 274.65 730.679 262.52 730.679 262.52C744.819 256.8 769.979 260.21 769.979 260.21C769.979 260.21 769.949 261.61 769.939 263.89C769.859 273.08 769.939 296.67 772.879 301.13C776.559 306.69 843.949 331.05 847.499 323.5C850.999 316.08 841.409 281.31 841.049 280C841.039 279.97 841.039 279.96 841.039 279.96C863.609 288.82 871.669 296.25 871.669 296.25C858.089 305.06 877.779 334.9 867.259 362.79Z" fill="#F99746"/>
<path d="M845.89 233.02C845.89 233.02 841.85 245.39 838.87 257.24C816.64 251.04 809.88 227.66 807.85 215.14L845.89 233.02Z" fill="#ED985F"/>
<path d="M850.57 246.11C850.57 246.11 797.38 233.8 805.55 200.79C813.73 167.78 812.37 143.96 846.68 150.43C880.99 156.89 884.44 171.12 884.39 182.8C884.34 194.48 864.62 248.47 850.57 246.11Z" fill="#FFB27D"/>
<path d="M887.39 164.06C881.67 152.1 874.94 152.73 870.73 154.86C845.74 131.73 821.22 150.63 821.22 150.63C811.78 173.43 791.33 182.74 791.33 182.74C791.33 182.74 799.5 191.11 823.19 190.92C830.42 190.86 837.7 187.54 844.32 182.96C831.55 195.82 816.58 203.65 816.58 203.65C846.23 197.98 866.11 163.65 868.15 160.01C870.66 163.72 875.47 171.61 875.87 178.28C876.42 187.34 873.3 204.94 878.49 205.6C878.48 205.6 895.96 182 887.39 164.06Z" fill="#494A4A"/>
<path d="M871.69 296.24C871.69 296.24 884.5 318.58 886.41 324.33C886.41 324.33 869.8 323.69 863.09 336.47C863.1 336.47 861.49 299.25 871.69 296.24Z" fill="#F99746"/>
<path d="M783.599 473.77C751.159 473.43 723.689 439.74 706.909 412.82C710.579 406.88 712.909 400.17 713.649 393.16C716.569 365.52 715.459 339.62 715.699 323.86C718.599 321.71 721.409 319.72 724.029 317.84C728.029 314.92 731.559 312.2 734.159 309.43C760.719 354.33 827.579 474.23 783.599 473.77Z" fill="#ED7D2B"/>
<path d="M720.48 1047.71H636.01C636.01 1047.71 633.99 1034.84 638.4 1025.07C642.63 1015.7 649.25 1011.44 647.66 1000.1C653.03 1005.63 661.78 1011.82 673.99 1010.17C675.49 1012.6 683.65 1025.58 688.65 1029.17C694.17 1033.13 718.78 1031.72 720.48 1047.71Z" fill="#0F8143"/>
<path d="M901.849 1047.71H817.379C817.379 1047.71 814.219 1034.24 819.769 1025.07C824.679 1016.96 822.799 1012.34 819.159 1005.63C822.989 1007.2 827.939 1008.62 833.389 1008.31C837.599 1008.07 842.049 1006.16 845.949 1003.89C849.589 1008.03 865.149 1025.68 870.019 1029.17C875.539 1033.13 900.149 1031.72 901.849 1047.71Z" fill="#0F8143"/>
<path d="M986.289 444.5L982.149 443.48C995.879 415.26 1020.3 393.81 1040.33 382.66C1057.87 372.9 1072.38 368.48 1077.59 367.05C1078.86 366.7 1080.2 367.02 1081.19 367.89L1085.01 371.26C1086.9 372.92 1086.19 376.11 1083.77 376.81C1065.21 382.15 1007.02 401.88 986.289 444.5Z" fill="#22593A"/>
<path d="M913.57 462.18C926.5 409.74 956.05 417.03 992.5 426.02C1028.95 435.01 1058.49 442.3 1045.56 494.74C1036.29 532.32 999.23 555.51 962.78 546.52C926.33 537.52 904.3 499.77 913.57 462.18Z" fill="#F46C0F"/>
<path d="M933.08 448.99C933.08 439.91 946.1 428.54 955.17 428.54C964.24 428.54 969.78 437.91 969.78 446.98C969.78 456.05 958.59 465.42 949.51 465.42C940.43 465.42 933.08 458.06 933.08 448.99Z" fill="#FF9045"/>
<path d="M906.21 491.42L901.77 507.66C901.77 507.66 896.19 506.65 887.3 504.99C884.63 504.48 883.11 504.1 883.11 504.1C876 502.7 867.5 500.8 858.23 498.77H858.1C842.23 494.96 824.47 490.39 809.49 485.32C798.96 481.64 789.82 477.71 783.6 473.77C782.97 473.39 782.46 473.01 781.82 472.5C766.97 461.71 749.33 429.98 735.62 395.97C733.72 391.27 731.94 386.58 730.16 382.01C723.81 365 718.74 348.25 715.69 333.78C713.79 325.15 712.52 317.28 712.26 310.81C712.13 308.53 712.01 306.37 712.13 304.34C712.38 267.53 730.66 262.46 730.66 262.46C731.04 262.33 731.42 262.21 731.93 262.08C735.1 261.57 738.4 263.73 741.83 267.92C746.15 273.12 750.71 281.63 755.41 291.91C762.64 308.28 770.26 329.48 777.37 350.55C781.3 362.1 785.11 373.65 788.92 384.31C791.08 390.78 793.24 396.88 795.27 402.46C799.2 413.12 802.76 421.75 805.93 427.21C807.96 430.76 813.8 435.71 821.54 441.3C834.99 451.07 854.67 462.88 871.8 472.52C878.91 476.58 885.629 480.26 891.219 483.31C900.249 488.24 906.21 491.42 906.21 491.42Z" fill="#FFB27D"/>
<path d="M755.38 291.95C730.95 285.21 712.1 304.29 712.1 304.29C712.41 267.54 730.7 262.51 730.7 262.51C738.06 259.46 746.59 272.21 755.38 291.95Z" fill="#F99746"/>
<path d="M906.209 491.42C906.209 491.42 914.179 491.59 918.689 488.84C923.199 486.09 935.969 482.33 941.729 482.96C941.729 482.96 943.859 483.84 943.109 485.84C942.359 487.84 932.969 489.47 932.969 493.23C932.969 493.23 944.739 492.85 948.249 491.35C951.759 489.85 965.269 493.3 967.909 494.86C970.539 496.42 950.759 508.33 941.989 513.14C933.219 517.95 901.779 507.67 901.779 507.67L906.209 491.42Z" fill="#FFB27D"/>
<path d="M900.25 1616.73C897.37 1616.73 894.909 1614.38 894.419 1611.18L865.84 1423.25L824.729 1152.97L813.229 1077.39L842.51 1076.42L847.59 1120.29L883.26 1428.62L904.409 1611.38C904.739 1614.21 902.78 1616.73 900.25 1616.73Z" fill="#FCECDB"/>
<path d="M600.599 1077.38L587.569 1163.04V1163.05L551.579 1399.66L519.399 1611.18C518.919 1614.38 516.449 1616.73 513.579 1616.73C511.039 1616.73 509.079 1614.22 509.419 1611.38L537.169 1371.6L566.849 1115.12L571.329 1076.43L600.599 1077.38Z" fill="#FCECDB"/>
<path d="M587.569 1163.04C589.279 1126.23 566.839 1115.11 566.839 1115.11L571.319 1076.42L600.599 1077.39L587.569 1163.04Z" fill="#EFCBAB"/>
<path d="M847.589 1120.29C828.619 1130 824.719 1152.97 824.719 1152.97L813.219 1077.39L842.499 1076.42L847.589 1120.29Z" fill="#EFCBAB"/>
<path d="M929.88 1077.38H483.94C477.13 1077.38 471.56 1071.81 471.56 1065V1060.08C471.56 1053.27 477.13 1047.7 483.94 1047.7H929.88C936.69 1047.7 942.26 1053.27 942.26 1060.08V1065C942.25 1071.81 936.68 1077.38 929.88 1077.38Z" fill="#FCECDB"/>
<path d="M2380.91 1616.14H2272.69C2266.89 1611.22 2276.7 1600.05 2286.96 1599.3C2291.41 1598.96 2297.04 1599.9 2303.48 1601.26C2304.97 1581.48 2313.47 1492.56 2345.53 1496.13C2381.57 1500.13 2345.53 1535.29 2335.34 1556.11C2327.79 1571.53 2319.83 1593.64 2316.19 1604.07C2319.12 1604.7 2322.15 1605.33 2325.24 1605.9C2330.02 1591.23 2347.79 1541.9 2370.39 1544.77C2396.93 1548.14 2386.26 1567.92 2367.45 1579.66C2353.65 1588.29 2336.7 1600.57 2328.65 1606.49C2335.47 1607.6 2342.59 1608.35 2349.82 1608.19C2368.35 1607.74 2377.4 1613.2 2380.91 1616.14Z" fill="#82B378"/>
<path d="M296.38 1616.14H404.6C410.4 1611.22 400.59 1600.05 390.33 1599.3C385.88 1598.96 380.25 1599.9 373.81 1601.26C372.32 1581.48 363.82 1492.56 331.76 1496.13C295.72 1500.13 331.76 1535.29 341.95 1556.11C349.5 1571.53 357.46 1593.64 361.1 1604.07C358.17 1604.7 355.14 1605.33 352.05 1605.9C347.27 1591.23 329.5 1541.9 306.9 1544.77C280.36 1548.14 291.03 1567.92 309.84 1579.66C323.64 1588.29 340.59 1600.57 348.64 1606.49C341.82 1607.6 334.7 1608.35 327.47 1608.19C308.94 1607.74 299.89 1613.2 296.38 1616.14Z" fill="#82B378"/>
<path d="M1294.66 1451.51C1299.3 1474.8 1304.99 1494.95 1311.6 1512.36C1362.85 1647.38 1469.67 1618.27 1573.94 1618.27C1691.66 1618.27 1691.43 1539.43 1691.43 1432.84C1691.43 1326.25 1626.22 1241.56 1508.5 1241.56C1390.78 1241.56 1273.85 1346.98 1294.66 1451.51Z" fill="#FFB93E"/>
<path d="M1763.07 1467.48C1763.8 1359.5 1685.28 1272.74 1580.45 1243.95C1473.47 1214.57 1384.63 1286.44 1384.8 1391.17C1384.97 1496.38 1475.65 1600.58 1584.16 1614.58C1689.1 1628.13 1762.35 1572.52 1763.07 1467.48Z" fill="#FFA412"/>
<path d="M1753.64 1464.88C1754.34 1362.28 1679.73 1279.85 1580.12 1252.49C1478.47 1224.57 1394.06 1292.87 1394.21 1392.38C1394.37 1492.34 1480.54 1591.35 1583.64 1604.66C1683.36 1617.52 1752.97 1564.68 1753.64 1464.88Z" fill="#FFDA9F"/>
<path d="M1572.23 1404.79L1601.38 1295.07C1603.55 1286.91 1597.19 1277.28 1588.34 1275.36C1577.54 1273.02 1562.68 1270.5 1546.89 1269.96C1528.61 1269.34 1513.25 1270.88 1502.64 1272.52C1494.41 1273.79 1491.12 1283.02 1495.97 1291.2L1563.23 1404.6C1565.65 1408.66 1571.17 1408.77 1572.23 1404.79Z" fill="#FFB93E"/>
<path d="M1597.48 1438.47L1706.79 1506.79C1714.92 1511.87 1724.22 1508.73 1725.82 1500.33C1727.78 1490.09 1729.76 1475.74 1729.76 1459.75C1729.76 1441.24 1727.73 1424.96 1725.75 1413.51C1724.22 1404.63 1715 1398.03 1707.08 1400.13L1597.37 1429.32C1593.44 1430.37 1593.51 1435.99 1597.48 1438.47Z" fill="#FFB93E"/>
<path d="M1590.74 1418.16L1698.85 1389.4C1706.89 1387.26 1709.43 1377.54 1704.03 1369.47C1697.44 1359.63 1687.82 1346.43 1675.93 1333.42C1662.17 1318.36 1649.01 1306.69 1639.46 1298.9C1632.06 1292.86 1622.31 1294.6 1619.73 1302.42L1583.89 1410.8C1582.59 1414.69 1586.81 1419.2 1590.74 1418.16Z" fill="#FFB93E"/>
<path d="M1580.33 1448.63L1613.76 1569.35C1616.25 1578.33 1625.98 1584.23 1633.71 1581.41C1643.14 1577.97 1655.76 1572.56 1668.08 1564.76C1682.34 1555.73 1693.28 1546.17 1700.55 1539C1706.18 1533.45 1704.01 1522.85 1696.15 1517.55L1587.28 1444.08C1583.39 1441.44 1579.12 1444.24 1580.33 1448.63Z" fill="#FFB93E"/>
<path d="M1553.8 1408.09L1480.76 1299.93C1475.33 1291.88 1464.8 1289.69 1459.19 1295.45C1452.35 1302.48 1443.51 1312.71 1435.79 1325.22C1426.86 1339.7 1420.98 1353.44 1417.37 1363.39C1414.57 1371.1 1420.33 1380.88 1429.02 1383.2L1549.49 1415.3C1553.81 1416.45 1556.45 1412.02 1553.8 1408.09Z" fill="#FFB93E"/>
<path d="M1549.46 1425.19L1430.47 1404.5C1421.62 1402.96 1415.21 1410.07 1417.36 1419.08C1419.98 1430.07 1424.28 1445.13 1430.9 1460.98C1438.57 1479.32 1447 1494.57 1453.38 1505.07C1458.33 1513.21 1468.71 1515.78 1474.41 1510.29L1553.34 1434.21C1556.17 1431.48 1553.79 1425.94 1549.46 1425.19Z" fill="#FFB93E"/>
<path d="M1560.15 1443.64L1495.99 1531.4C1491.22 1537.93 1494.59 1548.56 1502.93 1553.17C1513.1 1558.8 1527.31 1565.91 1543.09 1571.57C1561.36 1578.12 1577.36 1581.8 1588.6 1583.83C1597.31 1585.4 1603.56 1578.3 1601.24 1569.45L1569.17 1446.76C1568.02 1442.37 1562.48 1440.45 1560.15 1443.64Z" fill="#FFB93E"/>
<path d="M1297.97 894.27C1298.46 892.31 1255.42 913.72 1253.24 916.14C1233.06 938.53 1238.81 967.75 1250.36 968.03C1257.77 968.21 1256.33 980.52 1256.33 980.52L1338.85 945.61C1338.85 945.62 1328.91 887.68 1297.97 894.27Z" fill="#494A4A"/>
<path d="M1308.13 898.79C1308.13 898.79 1311.08 866.64 1275.16 866.64C1275.16 866.64 1286.04 869.59 1291.67 875.5C1291.67 875.5 1268.76 862.05 1243.83 882.72C1218.9 903.39 1234.39 955.21 1226.81 965.06C1219.23 974.9 1189.71 976.87 1193.31 1008.69C1196.92 1040.51 1287.01 1080.36 1281.22 1106.69C1281.22 1106.69 1316.52 1054.79 1291.28 1031.11C1291.28 1031.11 1303.59 1042.7 1304.84 1056.48C1304.84 1056.48 1308.18 1029.58 1291.06 1020.98C1275.91 1013.37 1263.51 985.52 1264.82 980.54C1266.14 975.55 1308.13 898.79 1308.13 898.79Z" fill="#494A4A"/>
<path d="M1275.52 1050.03C1269.98 1023.36 1235.4 1015.09 1219.04 1036.87C1216.1 1040.79 1214.03 1045.42 1213.35 1050.88C1209.61 1081.15 1258.02 1204.46 1264.95 1215.63C1277.57 1235.96 1351.88 1305.64 1351.88 1305.64L1365.58 1297.34C1365.58 1297.34 1312.87 1208.1 1304.71 1199.75C1295.27 1190.09 1286.03 1100.67 1275.52 1050.03Z" fill="#ED985F"/>
<path d="M1346.67 1297.37C1346.67 1297.37 1366.66 1284.25 1374.23 1285.09C1381.8 1285.94 1403.7 1292.24 1403.97 1295.46C1404.24 1298.68 1379.57 1300.69 1377.91 1302.45C1376.25 1304.21 1359.5 1315.39 1353.43 1311.89C1347.35 1308.38 1346.67 1297.37 1346.67 1297.37Z" fill="#ED985F"/>
<path d="M1207.24 1593.88L1189.38 1591.26C1189.38 1591.26 1129.34 1543.55 1120.4 1454.51C1119.49 1445.45 1119.3 1436.25 1119.97 1426.98C1120.05 1425.91 1119.93 1424.84 1119.35 1423.94C1119.35 1423.93 1119.34 1423.93 1119.33 1423.91C1117.41 1420.96 1112.63 1413.58 1106.15 1403.09C1099.77 1392.75 1088.84 1373.2 1076.82 1351.26C1055.17 1311.75 1029.96 1264.5 1021.32 1249.45C993.77 1201.49 1007.05 1169.23 1007.05 1169.23C1007.05 1169.23 1083.9 1161.63 1104.96 1143.21L1112.54 1154.9C1112.54 1154.9 1129.19 1228.61 1128.4 1228.96C1129.22 1231.47 1130.05 1234.02 1130.9 1236.62C1144.04 1277.18 1159.16 1327.87 1167.4 1369.16C1172.03 1392.39 1174.49 1412.63 1173.17 1426.42C1172.72 1431.15 1173.27 1438.42 1174.53 1447.39C1181.97 1500.3 1207.24 1593.88 1207.24 1593.88Z" fill="#F99746"/>
<path d="M1244.7 1616.48H1170.2C1170.2 1616.48 1168.41 1605.13 1172.31 1596.51C1176.04 1588.24 1181.35 1587.98 1172.99 1575.02C1177.72 1579.89 1192.94 1581.91 1203.71 1580.46C1205.03 1582.6 1212.22 1596.95 1216.63 1600.12C1221.49 1603.62 1243.2 1602.38 1244.7 1616.48Z" fill="#0F8143"/>
<path d="M1130.91 1236.63C1124.4 1272.52 1109.03 1332.26 1076.82 1351.27C1055.17 1311.76 1029.96 1264.51 1021.32 1249.46C993.77 1201.5 1007.05 1169.24 1007.05 1169.24C1007.05 1169.24 1083.9 1161.64 1104.96 1143.22L1112.54 1154.91C1112.54 1154.91 1129.19 1228.62 1128.4 1228.97C1129.23 1231.48 1130.06 1234.03 1130.91 1236.63Z" fill="#ED7D2B"/>
<path d="M1267.55 1033.48C1267.55 1033.48 1278.08 1044.43 1282.89 1057.56C1282.89 1057.56 1266.09 1105.81 1226.81 1111.87C1226.82 1111.86 1257.89 1033.46 1267.55 1033.48Z" fill="#4BD37B"/>
<path d="M1078.66 1174.79L1078.91 1160.86C1051.15 1164.36 983.191 1127.68 983.191 1127.68C983.191 1127.68 954.151 1147 950.171 1202.17C948.231 1229.1 935.951 1342.97 934.591 1376.98C934.091 1389.3 933.931 1398.1 933.871 1401.61C933.881 1401.63 933.881 1401.64 933.871 1401.64C933.851 1402.71 933.351 1403.66 932.691 1404.51C926.951 1411.81 921.961 1419.55 917.651 1427.57C875.291 1506.39 897.441 1613.49 897.441 1613.49L907.281 1610.99C907.281 1610.99 943.101 1499.97 966.511 1451.94C970.481 1443.79 974.091 1437.46 977.111 1433.79C985.911 1423.1 995.191 1404.94 1004.34 1383.09C1021.63 1341.78 1038.42 1287.27 1050.4 1245.06C1051.25 1245.21 1078.66 1174.79 1078.66 1174.79Z" fill="#F99746"/>
<path d="M1241.12 1081.79C1195.74 1071.37 1224.73 1007.6 1227.36 1008.72C1233.65 1007.44 1247.46 996.4 1259.81 974.83L1261.48 976.28L1289.36 1000.72C1289.36 1000.72 1282.92 1010.23 1277.5 1019.54C1273.27 1026.83 1269.66 1034.01 1270.24 1036.48C1272.48 1038.24 1253.23 1084.57 1241.12 1081.79Z" fill="#FFB27D"/>
<path d="M1289.36 1000.73C1289.36 1000.73 1282.91 1010.22 1277.5 1019.55C1260.17 1008.87 1260.15 987.41 1261.49 976.3L1289.36 1000.73Z" fill="#ED985F"/>
<path d="M1290.13 1012.97C1290.13 1012.97 1248.05 989.55 1263.03 963.57C1278.01 937.59 1282.68 917.07 1310.18 930.92C1337.68 944.77 1337.14 957.67 1334.24 967.56C1331.35 977.45 1301.46 1018.39 1290.13 1012.97Z" fill="#FFB27D"/>
<path d="M1341.36 952.41C1339.43 940.87 1333.57 939.77 1329.49 940.54C1313.95 914.84 1288.56 924.87 1288.56 924.87C1275 941.89 1255.39 944.79 1255.39 944.79C1255.39 944.79 1260.27 953.88 1280.39 959.5C1286.54 961.22 1293.51 960.18 1300.24 957.91C1286.28 965.69 1271.68 968.67 1271.68 968.67C1298.19 971.1 1323.42 946.86 1326.04 944.26C1327.26 948.02 1329.41 955.88 1328.12 961.63C1326.37 969.44 1319.44 983.59 1323.67 985.42C1323.68 985.44 1344.25 969.71 1341.36 952.41Z" fill="#494A4A"/>
<path d="M956.69 1616.48H882.19C882.19 1616.48 880.4 1605.13 884.3 1596.51C888.03 1588.24 893.87 1584.49 892.47 1574.49C897.2 1579.36 904.92 1584.82 915.69 1583.37C917.01 1585.51 924.21 1596.96 928.62 1600.13C933.48 1603.62 955.19 1602.38 956.69 1616.48Z" fill="#0F8143"/>
<path d="M1246.46 1132.35C1236.88 1135.7 1223.42 1137.53 1209.66 1139.02C1190.07 1141.16 1169.84 1142.62 1159.25 1146.85C1155.39 1148.39 1152.8 1150.29 1151.99 1152.73C1147.4 1166.54 1127.16 1187.85 1127.16 1187.85C997.43 1181.95 983.19 1127.68 983.19 1127.68C1070.47 1026.19 1218.25 996.81 1218.25 996.81C1218.25 996.81 1228.81 992.34 1255.39 1013.46C1273.13 1027.56 1270.79 1032.98 1270.79 1032.98C1270.79 1032.98 1274.67 1122.51 1246.46 1132.35Z" fill="#4BD37B"/>
<path d="M1209.66 1139.02C1190.07 1141.16 1169.84 1142.62 1159.25 1146.85C1154.92 1082.15 1185.45 1033.48 1185.45 1033.48C1185.45 1033.48 1205.37 1114.54 1209.66 1139.02Z" fill="#4BD37B"/>
<path d="M1229.82 1020.96C1229.82 1020.96 1180.72 1025.81 1176.79 1057.71C1172.85 1089.61 1223.86 1219.55 1231.17 1231.32C1244.47 1252.74 1322.78 1326.17 1322.78 1326.17L1337.21 1317.42C1337.21 1317.42 1281.66 1223.38 1273.06 1214.59C1259.56 1200.78 1246.44 1032.01 1229.82 1020.96Z" fill="#FFB27D"/>
<path d="M1178.2 1076.91C1178.33 1077.63 1223.51 1091.67 1252.59 1076.91C1252.59 1076.91 1258.81 1009.82 1224.1 1013.46C1189.39 1017.1 1168.83 1028.04 1167.95 1044.66C1167.08 1061.28 1178.2 1076.91 1178.2 1076.91Z" fill="#4BD37B"/>
<path d="M1318.31 1316.85C1318.31 1316.85 1335.92 1300.68 1343.53 1300.29C1351.13 1299.91 1373.77 1302.59 1374.55 1305.73C1375.33 1308.86 1351.31 1314.82 1349.96 1316.83C1348.61 1318.83 1333.88 1332.57 1327.32 1330.09C1320.75 1327.6 1318.31 1316.85 1318.31 1316.85Z" fill="#FFB27D"/>
<path d="M2707.51 1622.56H3.07C1.38 1622.56 0 1621.18 0 1619.49V1618.44C0 1616.75 1.38 1615.37 3.07 1615.37H2707.51C2709.2 1615.37 2710.58 1616.75 2710.58 1618.44V1619.49C2710.58 1621.18 2709.2 1622.56 2707.51 1622.56Z" fill="#87AF7D"/>
</g>
<defs>
<clipPath id="clip0">
<rect width="2710.58" height="1622.56" fill="white"/>
</clipPath>
</defs>
</svg>
