<svg width="1984" height="1666" viewBox="0 0 1984 1666" fill="none" xmlns="http://www.w3.org/2000/svg">
<path d="M1.22656 1664.77H1982.77" stroke="#40D8DB" stroke-miterlimit="10" stroke-linecap="round" stroke-linejoin="round"/>
<path d="M1774.1 804.914L1740.43 589.464L1525.03 623.134L1558.69 838.584L1774.1 804.914Z" fill="#DAF3F1"/>
<path d="M355.756 961.87L527.356 697.419L262.958 525.785L91.3573 790.236L355.756 961.87Z" stroke="#FFDEE0" stroke-miterlimit="10" stroke-linecap="round" stroke-linejoin="round"/>
<path d="M1435.44 352.709L1521.61 279.784L1448.69 193.606L1362.53 266.531L1435.44 352.709Z" fill="#FFB93E"/>
<path d="M1779.37 1390.67L1942.11 1252.93L1804.4 1090.17L1641.66 1227.9L1779.37 1390.67Z" stroke="#DBF4F2" stroke-miterlimit="10" stroke-linecap="round" stroke-linejoin="round"/>
<path d="M1440.23 1574.96L1526.39 1502.04L1453.48 1415.86L1367.32 1488.78L1440.23 1574.96Z" fill="#CEF4F2"/>
<path d="M800.831 642.962L946.999 583.935L887.983 437.738L741.815 496.765L800.831 642.962Z" fill="#CEF4F2"/>
<path d="M484.603 1573.79L673.513 1400.31L500.067 1211.36L311.158 1384.84L484.603 1573.79Z" stroke="#DBF4F2" stroke-miterlimit="10" stroke-linecap="round" stroke-linejoin="round"/>
<path d="M814.151 1166.1L710.566 1062.49L606.982 1166.1L710.566 1269.7L814.151 1166.1Z" fill="#FFB93E"/>
<path d="M1220.99 95.656L943.536 1.20898L849.108 278.717L1126.56 373.164L1220.99 95.656Z" stroke="#DAF3F1" stroke-miterlimit="10" stroke-linecap="round" stroke-linejoin="round"/>
<path d="M570.844 450.407L606.015 361.271L516.896 326.094L481.726 415.23L570.844 450.407Z" fill="#FFB93E"/>
<path d="M343.384 1507.43C343.384 1507.43 219.785 1293.73 203.84 1045.01C203.84 1045.01 317.373 1191.4 343.384 1507.43Z" fill="#A8D29F"/>
<path d="M266.42 936.756C266.42 936.756 265.083 1381.4 340.534 1506.18C396.566 1361.57 266.42 936.756 266.42 936.756Z" fill="#96D2DE"/>
<path d="M453.842 823.289C453.842 823.289 334.964 1340.01 382.266 1505.56C468.006 1343.8 453.842 823.289 453.842 823.289Z" fill="#ED7D2B"/>
<path d="M373.003 770.277C373.003 770.277 315.769 1240.89 382.222 1382.42C448.32 1229.89 373.003 770.277 373.003 770.277Z" fill="#96D2DE"/>
<path d="M416.118 1507.43C416.118 1507.43 539.717 1293.73 555.662 1045.01C555.662 1045.01 442.085 1191.4 416.118 1507.43Z" fill="#96D2DE"/>
<path d="M337.995 821.641C337.995 821.641 288.155 1349.55 356.791 1507.43C420.528 1335.78 337.995 821.641 337.995 821.641Z" fill="#A8D29F"/>
<path d="M505.466 932.924C505.466 932.924 352.604 1348.39 411.086 1492.15C519.942 1368.17 505.466 932.924 505.466 932.924Z" fill="#A8D29F"/>
<path d="M342.093 1515.09C342.093 1515.09 343.652 1323.93 278.801 1262.27C213.951 1200.62 205.132 1374.05 205.132 1374.05L251.409 1300.01C251.409 1300.05 278.757 1402.56 342.093 1515.09Z" fill="#ED7D2B"/>
<path d="M428.187 1494.06C428.187 1494.06 426.851 1333.15 481.457 1281.21C536.064 1229.31 543.502 1375.34 543.502 1375.34L504.529 1313.02C504.574 1313.02 481.547 1399.31 428.187 1494.06Z" fill="#ED7D2B"/>
<path d="M504.933 1438.6H266.999C266.999 1438.6 266.153 1449.78 266.509 1466.93H505.423C505.779 1449.78 504.933 1438.6 504.933 1438.6Z" fill="#22593A"/>
<path d="M330.872 1634.39V1636.84H441.064V1634.39C483.689 1606.77 499.278 1546.27 503.866 1495.44H268.07C272.658 1546.23 288.247 1606.77 330.872 1634.39Z" fill="#22593A"/>
<path d="M268.068 1495.44H503.863C504.798 1484.89 505.244 1475.22 505.422 1466.93H266.509C266.687 1475.22 267.132 1484.93 268.068 1495.44Z" fill="#FFB473"/>
<path d="M441.062 1636.84H330.87V1665.35H441.062V1636.84Z" fill="#0D3D4A"/>
<path d="M531.079 995.827H513.842V1664.73H531.079V995.827Z" fill="#0D3D4A"/>
<path d="M1761.86 995.827H1744.62V1664.73H1761.86V995.827Z" fill="#0D3D4A"/>
<path d="M1780.16 988.477H495.534V1010.35H1780.16V988.477Z" fill="#A8D29F"/>
<path d="M1056.83 988.343L674.228 988.521C667.859 988.521 661.712 983.22 660.599 976.671L623.274 754.773C622.161 748.269 626.526 742.923 632.895 742.923L1015.49 742.745C1021.86 742.745 1028.01 748.046 1029.12 754.595L1066.45 976.493C1067.56 982.997 1063.2 988.343 1056.83 988.343Z" fill="#DBF4F2"/>
<path d="M690.439 973.285H1133.21C1137.13 973.285 1140.34 976.493 1140.34 980.413C1140.34 984.333 1137.13 987.541 1133.21 987.541H690.439C686.519 987.541 683.313 984.333 683.313 980.413C683.312 976.493 686.519 973.285 690.439 973.285Z" fill="#DBF4F2"/>
<path d="M671.199 966.469L1052.37 966.291C1055.36 966.291 1057.36 963.84 1056.83 960.811L1022.67 757.891C1022.18 754.862 1019.33 752.411 1016.34 752.411L635.166 752.59C632.182 752.59 630.178 755.04 630.712 758.069L664.875 960.989C665.409 964.019 668.26 966.469 671.199 966.469Z" fill="#FFB66F"/>
<path d="M1024.05 951.857L696.142 952.035L665.009 766.979L992.913 766.801L1024.05 951.857Z" fill="#0D3D4A"/>
<path d="M995.452 781.992L667.548 782.17L665.009 766.979L992.913 766.801L995.452 781.992Z" fill="#22593A"/>
<path d="M721.484 794.555L850.873 794.511" stroke="#40D8DB" stroke-miterlimit="10" stroke-linecap="round" stroke-linejoin="round"/>
<path d="M723.624 807.206L952.249 807.117" stroke="#F26051" stroke-miterlimit="10" stroke-linecap="round" stroke-linejoin="round"/>
<path d="M725.761 819.858L847.222 819.813" stroke="white" stroke-miterlimit="10" stroke-linecap="round" stroke-linejoin="round"/>
<path d="M727.856 832.509L765.76 832.465" stroke="white" stroke-miterlimit="10" stroke-linecap="round" stroke-linejoin="round"/>
<path d="M775.202 832.466L911.005 832.421" stroke="white" stroke-miterlimit="10" stroke-linecap="round" stroke-linejoin="round"/>
<path d="M862.277 794.51L948.373 794.465" stroke="white" stroke-miterlimit="10" stroke-linecap="round" stroke-linejoin="round"/>
<path d="M729.992 845.162L835.864 845.118" stroke="#40D8DB" stroke-miterlimit="10" stroke-linecap="round" stroke-linejoin="round"/>
<path d="M732.132 857.814L978.884 857.68" stroke="white" stroke-miterlimit="10" stroke-linecap="round" stroke-linejoin="round"/>
<path d="M734.268 870.465L972.112 870.331" stroke="#F26051" stroke-miterlimit="10" stroke-linecap="round" stroke-linejoin="round"/>
<path d="M736.407 883.118L760.37 883.073" stroke="#40D8DB" stroke-miterlimit="10" stroke-linecap="round" stroke-linejoin="round"/>
<path d="M738.5 895.769L787.717 895.725" stroke="#40D8DB" stroke-miterlimit="10" stroke-linecap="round" stroke-linejoin="round"/>
<path d="M740.64 908.421L936.483 908.287" stroke="white" stroke-miterlimit="10" stroke-linecap="round" stroke-linejoin="round"/>
<path d="M742.775 921.028L859.114 920.984" stroke="#F26051" stroke-miterlimit="10" stroke-linecap="round" stroke-linejoin="round"/>
<path d="M744.915 933.681H812.661" stroke="white" stroke-miterlimit="10" stroke-linecap="round" stroke-linejoin="round"/>
<path d="M712.71 794.554H696.81" stroke="white" stroke-miterlimit="10" stroke-linecap="round" stroke-linejoin="round"/>
<path d="M714.85 807.206H698.949" stroke="white" stroke-miterlimit="10" stroke-linecap="round" stroke-linejoin="round"/>
<path d="M716.986 819.859H701.041" stroke="white" stroke-miterlimit="10" stroke-linecap="round" stroke-linejoin="round"/>
<path d="M719.081 832.51H703.181" stroke="white" stroke-miterlimit="10" stroke-linecap="round" stroke-linejoin="round"/>
<path d="M721.218 845.162H705.317" stroke="white" stroke-miterlimit="10" stroke-linecap="round" stroke-linejoin="round"/>
<path d="M723.357 857.814H707.456" stroke="white" stroke-miterlimit="10" stroke-linecap="round" stroke-linejoin="round"/>
<path d="M725.494 870.466H709.593" stroke="white" stroke-miterlimit="10" stroke-linecap="round" stroke-linejoin="round"/>
<path d="M727.589 883.117H711.688" stroke="white" stroke-miterlimit="10" stroke-linecap="round" stroke-linejoin="round"/>
<path d="M729.725 895.77H713.824" stroke="white" stroke-miterlimit="10" stroke-linecap="round" stroke-linejoin="round"/>
<path d="M731.865 908.422H715.964" stroke="white" stroke-miterlimit="10" stroke-linecap="round" stroke-linejoin="round"/>
<path d="M734.001 921.073H718.101" stroke="white" stroke-miterlimit="10" stroke-linecap="round" stroke-linejoin="round"/>
<path d="M736.138 933.726H720.192" stroke="white" stroke-miterlimit="10" stroke-linecap="round" stroke-linejoin="round"/>
<path d="M772.127 883.073L907.93 883.028" stroke="white" stroke-miterlimit="10" stroke-linecap="round" stroke-linejoin="round"/>
<path d="M916.617 883.029L954.521 882.984" stroke="white" stroke-miterlimit="10" stroke-linecap="round" stroke-linejoin="round"/>
<path d="M848.114 845.118L960.534 845.029" stroke="white" stroke-miterlimit="10" stroke-linecap="round" stroke-linejoin="round"/>
<path d="M800.143 895.725H838.046" stroke="white" stroke-miterlimit="10" stroke-linecap="round" stroke-linejoin="round"/>
<path d="M851.143 895.68L967.481 895.636" stroke="#F26051" stroke-miterlimit="10" stroke-linecap="round" stroke-linejoin="round"/>
<path d="M825.219 933.68L941.557 933.591" stroke="#40D8DB" stroke-miterlimit="10" stroke-linecap="round" stroke-linejoin="round"/>
<path d="M1626.77 984.023L1621.33 982.018L1697.45 776.157L1549.8 640.06L1553.72 635.784L1704.26 774.509L1626.77 984.023Z" fill="#0D3D4A"/>
<path d="M1562.76 615.558C1571.09 623.889 1571.09 637.343 1562.76 645.673L1547.71 660.731L1517.6 630.616L1532.65 615.558C1540.98 607.272 1554.48 607.272 1562.76 615.558Z" fill="#0D3D4A"/>
<path d="M1517.64 630.615L1532.7 645.673L1547.71 660.731L1534.52 711.026L1500.94 677.392L1467.36 643.802L1517.64 630.615Z" fill="#0D3D4A"/>
<path d="M1712.55 775.311C1712.55 781.77 1707.29 787.027 1700.84 787.027C1694.38 787.027 1689.12 781.77 1689.12 775.311C1689.12 768.851 1694.38 763.594 1700.84 763.594C1707.34 763.594 1712.55 768.851 1712.55 775.311Z" fill="#0D3D4A"/>
<path d="M1605.61 975.202H1646.18C1653.53 975.202 1659.46 981.127 1659.46 988.477H1592.33C1592.33 981.127 1598.3 975.202 1605.61 975.202Z" fill="#0D3D4A"/>
<path d="M880.315 1096.77L961.379 1191.48C1256.32 1320.32 1387.18 1257.46 1424.64 1096.77C1424.64 1096.77 1073.93 952.926 880.315 1096.77Z" fill="#FFBC9A"/>
<path d="M1444.94 1284.32H1456.16V1124.61H1444.94V1284.32Z" fill="#0D3D4A"/>
<path d="M1339.8 1181.11H1493.82C1523.21 1181.11 1547.26 1157.05 1547.26 1127.65V895.993C1547.26 866.59 1523.21 842.534 1493.82 842.534H1339.8C1310.4 842.534 1286.35 866.59 1286.35 895.993V1127.65C1286.35 1157.05 1310.4 1181.11 1339.8 1181.11Z" fill="#FFB66F"/>
<path d="M1345.83 1597.05H1357.05V1255.04H1345.83V1597.05Z" fill="#0D3D4A"/>
<path d="M1439.21 1597.15V1623.92H1427.98V1604.5C1427.98 1600.53 1424.78 1597.33 1420.81 1597.33H1282.02C1278.06 1597.33 1274.85 1600.53 1274.85 1604.5V1623.92H1263.63V1597.15C1263.63 1591.05 1268.57 1586.1 1274.68 1586.1H1428.21C1434.26 1586.14 1439.21 1591.09 1439.21 1597.15Z" fill="#0D3D4A"/>
<path d="M1461.34 1636.75C1461.34 1652.21 1448.78 1664.77 1433.33 1664.77C1417.87 1664.77 1405.31 1652.21 1405.31 1636.75C1405.31 1621.29 1417.87 1608.73 1433.33 1608.73C1448.78 1608.73 1461.34 1621.29 1461.34 1636.75Z" fill="#FFB66F"/>
<path d="M1297.57 1636.75C1297.57 1652.21 1285.01 1664.77 1269.55 1664.77C1254.1 1664.77 1241.54 1652.21 1241.54 1636.75C1241.54 1621.29 1254.1 1608.73 1269.55 1608.73C1285.01 1608.73 1297.57 1621.29 1297.57 1636.75Z" fill="#FFB66F"/>
<path d="M1534.84 1275.33C1534.84 1286.51 1525.75 1295.6 1514.57 1295.6H1188.27C1177.09 1295.6 1168 1286.51 1168 1275.33C1168 1264.15 1177.09 1255.06 1188.27 1255.06H1514.57C1525.79 1255.06 1534.84 1264.15 1534.84 1275.33Z" fill="#FFB66F"/>
<path d="M907.531 972.082C907.531 972.082 873.012 978.899 863.169 969.053C853.325 959.208 879.827 952.392 907.531 937.245C935.235 922.099 961.603 952.392 961.603 952.392L1118.78 927.266C1253.03 766.623 1288.48 653.201 1321.53 709.244C1362.86 779.408 1215.7 975.735 1142.39 986.294C1069.08 996.852 954.075 980.859 954.075 980.859C923.743 980.903 907.531 972.082 907.531 972.082Z" fill="#FCAF8D"/>
<path d="M1467.71 762.124C1436.4 648.48 1361.57 671.155 1361.57 671.155C1273.25 660.063 1246.3 737.444 1238.46 788.408C1265.54 798.699 1340.86 815.939 1467.71 762.124Z" fill="#FCAF8D"/>
<path d="M1474.26 791.616C1472.39 780.88 1470.16 771.124 1467.71 762.169C1340.82 815.984 1265.54 798.744 1238.46 788.453C1219.31 913.279 1292.8 922.189 1284.16 1042.11C1283.85 1046.39 1278.42 1048.57 1278.28 1052.98C1307.99 1057.44 1385.31 1070.76 1500.54 1023.36C1496.04 948.606 1486.73 863.117 1474.26 791.616Z" fill="#DAF3F1"/>
<path d="M1236.24 806.896C1236.24 806.896 1327.59 843.872 1471.14 775.801" stroke="#0D718D" stroke-miterlimit="10" stroke-linecap="round" stroke-linejoin="round"/>
<path d="M1235.26 827.344C1235.26 827.344 1326.16 869.264 1475.6 799.412" stroke="#0D718D" stroke-miterlimit="10" stroke-linecap="round" stroke-linejoin="round"/>
<path d="M1236.24 852.335C1236.24 852.335 1326.12 897.33 1478 822.443" stroke="#0D718D" stroke-miterlimit="10" stroke-linecap="round" stroke-linejoin="round"/>
<path d="M1242.65 879.556C1242.65 879.556 1351.46 919.115 1482.28 842.357" stroke="#0D718D" stroke-miterlimit="10" stroke-linecap="round" stroke-linejoin="round"/>
<path d="M1252.09 905.171C1252.09 905.171 1344.29 938.672 1485.57 866.502" stroke="#0D718D" stroke-miterlimit="10" stroke-linecap="round" stroke-linejoin="round"/>
<path d="M1263.99 931.722C1263.99 931.722 1369.86 958.184 1488.47 889.712" stroke="#0D718D" stroke-miterlimit="10" stroke-linecap="round" stroke-linejoin="round"/>
<path d="M1273.87 956.269C1273.87 956.269 1376.36 978.409 1491.41 915.685" stroke="#0D718D" stroke-miterlimit="10" stroke-linecap="round" stroke-linejoin="round"/>
<path d="M1281.67 981.35C1281.67 981.35 1392.8 1010.35 1493.95 940.365" stroke="#0D718D" stroke-miterlimit="10" stroke-linecap="round" stroke-linejoin="round"/>
<path d="M1284.52 1010.35C1284.52 1010.35 1394.93 1032.85 1495.9 961.391" stroke="#0D718D" stroke-miterlimit="10" stroke-linecap="round" stroke-linejoin="round"/>
<path d="M1222.52 483.336C1222.52 483.336 1179.36 749.605 1261.98 863.205C1237.93 717.174 1316.45 706.526 1316.45 658.503C1316.5 610.479 1222.52 483.336 1222.52 483.336Z" fill="#494A4A"/>
<path d="M1007.03 1565.96C1007.03 1566.01 1006.99 1566.05 1006.99 1566.1C1003.38 1560.66 998.572 1557.14 994.029 1557.72L957.06 1563.87L950.424 1577.81C950.379 1577.77 950.335 1577.77 950.246 1577.73C916.573 1637.78 869.094 1625.88 871.321 1663.39L1021.96 1621.03C1021.96 1621.03 1024.14 1585.57 1007.03 1565.96Z" fill="#FCAF8D"/>
<path d="M941.068 1233.9C912.384 1287.18 958.305 1592.92 958.305 1592.92L1002.13 1589.98C1002.13 1589.98 1055.71 1380.24 1016.83 1279.87C1325.54 1260.54 1440.67 1277.33 1473.32 1173.67C1481.61 1147.29 1479.25 1118.78 1462.45 1096.82C1462.45 1096.77 1005.61 1048.48 941.068 1233.9Z" fill="#FCAF8D"/>
<path d="M1286.34 1039.93C1286.34 1039.93 1184.17 1026.3 1088.54 1028.17C1029.44 1029.33 971.267 1044.16 919.155 1072.05C904.947 1079.67 898.845 1084.17 898.845 1084.17C1052.37 1084.17 954.921 1325.09 1022.84 1410.22C1090.77 1495.35 1208.44 1388.21 1235.48 1311.06C1262.51 1233.85 1467.58 1319.92 1508.29 1110.85C1515.46 1054.45 1498.22 988.477 1498.22 988.477C1498.22 988.477 1391.28 1042.02 1286.34 1039.93Z" fill="#22593A"/>
<path d="M973.495 1146.67L880.361 1096.77C831.367 1132.28 919.601 1482.03 919.601 1482.03L967.036 1455.04L973.495 1146.67Z" fill="#FFBC9A"/>
<path d="M923.877 1070.31C923.877 1070.31 985.966 1051.07 1016.43 1125.33C1046.9 1199.59 1005.96 1307.27 1046.9 1382.07C1087.87 1456.86 1158.29 1411.96 1158.29 1411.96" stroke="#0D3D4A" stroke-miterlimit="10" stroke-linecap="round" stroke-linejoin="round"/>
<path d="M1280.47 1099.27C1280.47 1099.27 1398.05 1058.77 1463.35 1023.8C1528.64 988.833 1486.42 708.175 1424.6 686.613C1386.38 673.293 1357.12 801.059 1414.89 959.519L1277.84 1069.91C1277.84 1069.91 1242.7 1050.44 1221.85 1074.14C1201.01 1097.84 1178.42 1113.3 1191.03 1119.18C1203.63 1125.06 1233.74 1106.89 1233.74 1106.89C1233.74 1106.89 1252 1109.65 1280.47 1099.27Z" fill="#FFBC9A"/>
<path d="M1394.27 689.107L1365.36 540.002L1293.16 612.884L1305.32 702.739C1305.36 702.739 1340.15 733.789 1394.27 689.107Z" fill="#FCAF8D"/>
<path d="M1303.67 435.358C1303.67 435.358 1384.82 424.443 1384.82 537.107C1384.82 573.014 1381.04 601.748 1365.31 614.756C1312.58 658.503 1263.94 651.509 1242.03 614.756C1231.6 597.248 1222.52 573.058 1222.52 537.107C1222.52 424.443 1303.67 435.358 1303.67 435.358Z" fill="#FFBC9A"/>
<path d="M1384.14 584.374C1388.3 564.056 1375.21 544.206 1354.9 540.037C1334.59 535.868 1314.74 548.959 1310.57 569.277C1306.4 589.595 1319.49 609.445 1339.81 613.614C1360.12 617.783 1379.97 604.692 1384.14 584.374Z" fill="#ED9B70"/>
<path d="M1257.97 576.8C1257.97 590.833 1250.18 602.95 1238.73 609.365C1229.42 593.061 1222.87 570.519 1222.52 539.468C1242.25 540.582 1257.97 556.798 1257.97 576.8Z" fill="#ED9B70"/>
<path d="M1298.99 596.534C1298.99 596.534 1283.54 587.669 1278.95 596.534C1274.36 587.357 1263.36 596.534 1263.36 596.534C1263.36 596.534 1266.7 606.869 1279.31 607.983C1295.16 609.453 1298.99 596.534 1298.99 596.534Z" fill="#22593A"/>
<path d="M1323.62 545.348C1326.87 545.348 1329.5 542.715 1329.5 539.467C1329.5 536.22 1326.87 533.587 1323.62 533.587C1320.38 533.587 1317.74 536.22 1317.74 539.467C1317.74 542.715 1320.38 545.348 1323.62 545.348Z" fill="#010101"/>
<path d="M1333.51 534.078C1333.51 534.078 1315.43 525.703 1299.48 539.736" stroke="#010101" stroke-width="0.5" stroke-miterlimit="10" stroke-linecap="round" stroke-linejoin="round"/>
<path d="M1256.77 541.205C1256.77 544.457 1254.14 547.086 1250.89 547.086C1247.64 547.086 1245.01 544.457 1245.01 541.205C1245.01 537.953 1247.64 535.325 1250.89 535.325C1254.14 535.325 1256.77 537.953 1256.77 541.205Z" fill="#010101"/>
<path d="M1227.95 534.078C1227.95 534.078 1246.03 525.703 1261.98 539.736" stroke="#010101" stroke-width="0.5" stroke-miterlimit="10" stroke-linecap="round" stroke-linejoin="round"/>
<path d="M1261.98 520.757C1261.98 520.757 1243.9 512.382 1227.95 526.415" stroke="#010101" stroke-width="0.5" stroke-miterlimit="10" stroke-linecap="round" stroke-linejoin="round"/>
<path d="M1299.48 520.757C1299.48 520.757 1317.57 512.382 1333.51 526.415" stroke="#010101" stroke-width="0.5" stroke-miterlimit="10" stroke-linecap="round" stroke-linejoin="round"/>
<path d="M1305.85 593.639C1305.85 593.639 1282.42 607.449 1257.48 594.797" stroke="#010101" stroke-width="0.5" stroke-miterlimit="10" stroke-linecap="round" stroke-linejoin="round"/>
<path d="M1264.43 569.493C1271.56 551.451 1277.12 536.928 1277.12 536.928V584.417C1277.12 584.417 1257.3 587.58 1264.43 569.493Z" fill="#ED9B70"/>
<path d="M1277.12 536.928C1277.12 536.928 1262.92 569.939 1262.92 576.755C1262.92 583.615 1270.4 584.372 1277.12 584.372" stroke="#010101" stroke-width="0.5" stroke-miterlimit="10" stroke-linecap="round" stroke-linejoin="round"/>
<path d="M1516.75 1295.6H1507.84V1195.58C1507.84 1193.62 1507.04 1147.11 1459.38 1147.11H1336.63V1138.21H1459.38C1515.99 1138.21 1516.75 1195 1516.75 1195.58V1295.6Z" fill="#0D3D4A"/>
<path d="M1449.99 1125.33H1322.38C1312.85 1125.33 1305.01 1133.13 1305.01 1142.7C1305.01 1152.24 1312.8 1160.08 1322.38 1160.08H1449.99C1459.52 1160.08 1467.36 1152.28 1467.36 1142.7C1467.36 1133.13 1459.56 1125.33 1449.99 1125.33Z" fill="#FFB66F"/>
<path d="M1428.34 512.739C1428.34 512.828 1428.34 512.917 1428.34 512.962C1409.81 455.449 1374.67 420.033 1325.05 416.647C1325.05 416.647 1209.82 394.061 1213.65 509.398C1275.3 513.585 1327.28 490.019 1351.73 465.562C1356.18 634.491 1293.2 777.76 1387.76 856.434C1386.65 792.996 1384.33 755.218 1392.57 731.652C1401.97 704.789 1437.42 700.067 1453.68 723.411C1459.47 731.697 1465.48 743.146 1471.45 758.961C1467.31 699.8 1441.3 544.146 1428.34 512.739Z" fill="#494A4A"/>
<path d="M962.181 1446.53C962.181 1446.57 962.181 1446.62 962.181 1446.66C956.346 1443.72 950.467 1442.96 946.814 1445.73L917.596 1469.2L918.665 1484.62C918.62 1484.62 918.531 1484.62 918.487 1484.62C918.487 1553.45 871.319 1566.32 891.54 1597.95L1002.18 1487.29C1002.13 1487.25 986.722 1455.26 962.181 1446.53Z" fill="#FFBC9A"/>
<path d="M1289.51 415.533C1289.51 415.533 1343.53 432.595 1351.73 502.091C1365.22 447.697 1360.28 425.2 1360.28 425.2C1360.28 425.2 1337.65 405.866 1289.51 415.533Z" fill="#0D3D4A"/>
<path d="M1020.4 1597.46C1020.4 1597.46 983.784 1615.37 957.951 1608.11C966.591 1593.58 946.726 1583.74 935.502 1584.81C924.278 1585.88 929.222 1600.84 929.222 1600.84C929.222 1600.84 899.425 1622.76 882.232 1634.48C869.672 1643.03 869.672 1654.48 870.563 1660.05L1024.23 1623.07C1025.12 1609.31 1020.4 1597.46 1020.4 1597.46Z" fill="#DAF3F1"/>
<path d="M870.562 1660.05C870.874 1662.1 871.364 1663.39 871.364 1663.39C871.364 1663.39 950.512 1645.84 1023.69 1628.02C1023.96 1626.37 1024.14 1624.72 1024.27 1623.08L870.562 1660.05Z" fill="#0D718D"/>
<path d="M988.328 1465.51C988.328 1465.51 965.078 1498.96 938.977 1505.24C939.467 1488.36 917.286 1489.43 908.022 1495.84C898.757 1502.26 910.382 1512.91 910.382 1512.91C910.382 1512.91 895.016 1546.54 885.752 1565.16C878.492 1579.69 886.064 1591.45 889.716 1595.9L1003.96 1485.51C998.037 1473.39 988.328 1465.51 988.328 1465.51Z" fill="#DAF3F1"/>
<path d="M889.715 1595.95C890.739 1597.19 891.496 1597.95 891.496 1597.95C891.496 1597.95 950.824 1541.86 1006.05 1490.63C1005.43 1488.89 1004.72 1487.2 1003.92 1485.6L889.715 1595.95Z" fill="#0D718D"/>
<path d="M910.38 1512.95L934.788 1523.55" stroke="#0D718D" stroke-miterlimit="10" stroke-linecap="round" stroke-linejoin="round"/>
<path d="M903.79 1527.25L925.437 1537.94" stroke="#0D718D" stroke-miterlimit="10" stroke-linecap="round" stroke-linejoin="round"/>
<path d="M896.486 1542.71L916.173 1552.42" stroke="#0D718D" stroke-miterlimit="10" stroke-linecap="round" stroke-linejoin="round"/>
<path d="M928.509 1601.47L943.964 1623.16" stroke="#0D718D" stroke-miterlimit="10" stroke-linecap="round" stroke-linejoin="round"/>
<path d="M915.46 1610.33L928.51 1630.65" stroke="#0D718D" stroke-miterlimit="10" stroke-linecap="round" stroke-linejoin="round"/>
<path d="M901.25 1619.82L913.098 1638.27" stroke="#0D718D" stroke-miterlimit="10" stroke-linecap="round" stroke-linejoin="round"/>
<path d="M644.388 881.649H589.56L590.985 901.785H642.963L644.388 881.649Z" fill="#DBF4F2"/>
<path d="M590.629 848.46L569.16 850.197L569.561 855.409L591.029 853.672L597.265 931.143L602.476 930.742L596.241 853.271C596.018 850.375 593.524 848.237 590.629 848.46Z" fill="#9BD4E1"/>
<path d="M590.986 901.785L597.177 988.522H636.818L642.965 901.785H590.986Z" fill="#22593A"/>
</svg>
